<svg width="46" height="46" fill="none" xmlns="http://www.w3.org/2000/svg"><circle cx="23" cy="23" r="22.5" fill="#18181B" stroke="url(#paint0_linear_52_1562)"/><g fill="#fff"><path d="M22.996 13.876c2.972 0 3.324.012 4.497.065a6.173 6.173 0 012.067.383 3.687 3.687 0 012.113 2.113c.245.662.374 1.36.383 2.066.053 1.174.064 1.526.064 4.498 0 2.971-.01 3.323-.064 4.497a6.177 6.177 0 01-.383 2.067 3.685 3.685 0 01-2.113 2.112 6.173 6.173 0 01-2.067.383c-1.173.053-1.525.065-4.497.065s-3.324-.011-4.497-.065a6.174 6.174 0 01-2.067-.383 3.687 3.687 0 01-2.112-2.112 6.174 6.174 0 01-.383-2.067c-.053-1.174-.065-1.526-.065-4.497 0-2.972.011-3.324.065-4.498a6.174 6.174 0 01.383-2.066 3.685 3.685 0 012.112-2.113 6.174 6.174 0 012.067-.383c1.174-.053 1.526-.065 4.497-.065zm0-2.005c-3.02 0-3.401.013-4.588.067a8.168 8.168 0 00-2.703.517 5.451 5.451 0 00-1.97 1.284 5.45 5.45 0 00-1.285 1.971 8.173 8.173 0 00-.517 2.703c-.053 1.186-.066 1.566-.066 4.587 0 3.02.013 3.401.067 4.588a8.16 8.16 0 00.517 2.703 5.45 5.45 0 001.284 1.971 5.45 5.45 0 001.971 1.284c.865.324 1.78.5 2.703.517 1.187.053 1.566.067 4.588.067 3.023 0 3.401-.013 4.589-.067a8.168 8.168 0 002.702-.517 5.697 5.697 0 003.254-3.256c.324-.865.5-1.779.517-2.703.053-1.186.066-1.566.066-4.587 0-3.02-.013-3.401-.066-4.588a8.171 8.171 0 00-.518-2.703 5.452 5.452 0 00-1.284-1.97 5.453 5.453 0 00-1.97-1.285 8.173 8.173 0 00-2.703-.517c-1.186-.053-1.567-.066-4.588-.066z"/><path d="M23 17.285a5.715 5.715 0 100 11.43 5.715 5.715 0 000-11.43zm0 9.425a3.71 3.71 0 110-7.42 3.71 3.71 0 010 7.42zm5.937-8.314a1.335 1.335 0 100-2.671 1.335 1.335 0 000 2.67z"/></g><defs><linearGradient id="paint0_linear_52_1562" x1="0" y1="23" x2="46" y2="23" gradientUnits="userSpaceOnUse"><stop stop-color="#0CBAF1"/><stop offset="1" stop-color="#E95CE9"/></linearGradient></defs></svg>