<svg width="70" height="70" fill="none" xmlns="http://www.w3.org/2000/svg"><mask id="a" style="mask-type:luminance" maskUnits="userSpaceOnUse" x="1" y="13" width="69" height="45"><path d="M1 13h69v44.849H1V13z" fill="#fff"/></mask><g mask="url(#a)"><path d="M20.863 36.083c-3.392 0-6.157 2.408-6.157 5.365 0 2.958 2.76 5.367 6.157 5.367 3.397 0 6.157-2.407 6.157-5.367s-2.761-5.365-6.157-5.365zm0 .889c2.634 0 4.82 1.652 5.203 3.805-.193 2.315-2.453 4.148-5.203 4.148-2.75 0-5.016-1.833-5.204-4.148.39-2.153 2.57-3.805 5.204-3.805zm0 8.955c-2.42 0-4.462-1.399-5.074-3.293.926 1.62 2.853 2.733 5.074 2.733 2.221 0 4.148-1.116 5.074-2.733-.612 1.894-2.655 3.293-5.074 3.293zm28.678-9.844c-3.392 0-6.156 2.408-6.156 5.365 0 2.958 2.759 5.367 6.156 5.367 3.399 0 6.157-2.407 6.157-5.367s-2.766-5.365-6.157-5.365zm0 .889c2.634 0 4.821 1.652 5.204 3.805-.194 2.315-2.453 4.148-5.204 4.148-2.749 0-5.016-1.833-5.203-4.148.383-2.153 2.57-3.805 5.203-3.805zm0 8.955c-2.419 0-4.462-1.399-5.072-3.293.925 1.62 2.852 2.733 5.072 2.733 2.222 0 4.147-1.116 5.074-2.733-.613 1.894-2.654 3.293-5.074 3.293zM69.988 16.53v-.237a.416.416 0 00-.075-.261c-.572-2.893-3.064-2.705-3.092-2.703a.335.335 0 00-.17.062.335.335 0 00-.117.138l-.753 1.571a4.683 4.683 0 00-2.857-1.043H7.655a3.669 3.669 0 00-2.294.882l-.815-1.701a.347.347 0 00-.118-.14.354.354 0 00-.171-.063c-.027 0-2.647-.198-3.129 2.933a.44.44 0 00-.127.325l.89 25.17c0 .045.01.088.024.13l4.734 13.725a.44.44 0 00.18.228c.182.442.453.822.812 1.139.647.565 1.523.849 2.613.849.265 0 .528-.017.791-.048a.36.36 0 00.231-.12.36.36 0 00.086-.247l-.16-3.643H25.83a.434.434 0 00.233-.066.427.427 0 00.164-.178l3.822-7.636h10.455a.4.4 0 00.077 0l3.825 7.641a.446.446 0 00.398.244h15.084l-.168 3.939a.348.348 0 00.084.246.36.36 0 00.23.122c.263.03.527.045.791.046 1.09 0 1.968-.284 2.613-.847a3.266 3.266 0 001.063-2.122l4.56-13.258a.435.435 0 00.026-.13l.875-24.799a.324.324 0 00.027-.148zM7.67 14.937h55.263c.455.01.894.1 1.315.272.421.17.799.41 1.132.72l-.63 1.32H6.474l-.714-1.48a2.804 2.804 0 011.911-.822v-.01zm53.458 9.953l-.132 3.046h-.792a62.117 62.117 0 00-.456-7.655.223.223 0 00-.18-.188c-12.283-2.13-21.206-.016-21.289 0a.214.214 0 00-.161.157c-.174.725-.293 1.46-.359 2.203h-4.366c-.114-1.345-.228-2.167-.228-2.177a.225.225 0 00-.182-.188c-12.281-2.13-21.207-.019-21.29 0a.214.214 0 00-.16.157c-.028.1-.664 2.47-.557 7.682h-.883L9.95 24.59a.356.356 0 00-.035-.137l-3.108-6.488h57.604l-3.249 6.789a.388.388 0 00-.034.136zm-13.064-2.233a.438.438 0 00-.16-.144.445.445 0 00-.21-.055h-9.496a17.29 17.29 0 01.308-1.958c1.14-.25 9.517-1.926 20.813 0 .29 2.47.438 4.947.44 7.434H46.954v-2.129l1.14-2.732a.432.432 0 00-.029-.416zm-25.539.418l1.14 2.733v2.13H11.422c-.094-4.485.38-6.88.508-7.436 1.14-.25 9.518-1.926 20.817 0 .036.296.118.986.2 1.957H22.94a.46.46 0 00-.295.12.472.472 0 00-.119.179.451.451 0 00.003.317h-.003zM3.996 13.74l.86 1.8a.447.447 0 00.228.481l.83 1.735 3.33 6.947.138 3.233H6.93a.45.45 0 00-.315.138.45.45 0 00-.13.317v5.625c.004.1.036.189.099.267.062.078.142.13.239.156.981.278 1.916.668 2.804 1.17l.438 10.065a6.424 6.424 0 01-2.737.547.439.439 0 00-.367.166L6.1 25.332a.363.363 0 00-.034-.14l-4.172-8.796v-.13a.416.416 0 00-.054-.197c.315-2.018 1.653-2.293 2.16-2.323l-.003-.007zm6.934 31.42l-.39-8.986c1.957 1.4 2.812 3.133 2.543 5.155-.26 1.974-1.138 3.144-2.15 3.847l-.003-.016zM1.957 18.19l3.435 7.24 1.081 26.664-3.697-10.73-.819-23.174zm8.68 38.618c-1.091.068-1.939-.15-2.509-.654a2.306 2.306 0 01-.62-.861.445.445 0 000-.264l-.206-.595-.038-.971h3.247l.126 3.345zm19.856-12.107l.328-.656a.332.332 0 00.032-.08l.01-.04h8.895l.024.063c.006.02.014.039.023.057l.329.656h-9.641zm.795-1.664a4.108 4.108 0 012.567-1.89 4.087 4.087 0 011.082-.112c1.569-.039 2.855.437 3.822 1.423.175.18.336.373.483.579h-7.954zm9.329.632c-.146-.382-1.505-3.63-5.678-3.522-3.054 0-4.346 2.163-4.77 3.126a3.577 3.577 0 00-.157.408l-4.458 8.898H7.744v-5.485a7.658 7.658 0 002.894-.736.412.412 0 00.167-.08c1.423-.744 2.814-2.15 3.17-4.815.426-3.188-1.626-5.237-3.605-6.439a.421.421 0 00-.155-.094 14.074 14.074 0 00-2.83-1.259v-4.847h16.75a.447.447 0 00.322-.134.442.442 0 00.134-.322v-2.653a.457.457 0 00-.034-.173l-.925-2.197h23.392l-.926 2.197a.459.459 0 00-.034.173v2.665a.447.447 0 00.134.322.452.452 0 00.322.133h14.491a.348.348 0 00.305.2.34.34 0 00.336-.2h1.599v4.836c-.847.27-1.661.618-2.442 1.041a.41.41 0 00-.185.1c-2.08 1.174-4.418 3.27-3.966 6.65.385 2.89 1.988 4.302 3.53 4.99a.42.42 0 00.183.077 7.75 7.75 0 002.508.565v5.485H45.077l-4.46-8.91zm16.933-2.324c-.283-2.113.661-3.91 2.807-5.34l.1-.066-.41 9.465c-1.129-.667-2.207-1.874-2.497-4.06zm5.416 15.098c-.584.505-1.428.724-2.52.656l.157-3.644h2.736a.436.436 0 00.169-.036.451.451 0 00.276-.407v-6.376a.44.44 0 00-.29-.416.432.432 0 00-.177-.028 6.35 6.35 0 01-2.395-.398l.456-10.41c.779-.4 1.59-.714 2.434-.946a.44.44 0 00.238-.16.443.443 0 00.097-.27V28.38a.453.453 0 00-.274-.418.45.45 0 00-.171-.038h-1.993l.128-2.944 5.244-10.957c.48.023 1.694.262 2.1 1.988a.45.45 0 00-.082.241l-.022.656-4.064 8.575a.372.372 0 00-.034.136L63.82 54.084l-.324.936a.445.445 0 00-.008.252.445.445 0 00.129.22c-.14.371-.357.689-.655.953h.003zm1.652-4.7l1.061-26.03 3.322-7.008-.8 22.651-3.582 10.387z" fill="url(#paint0_linear_9_179)"/></g><defs><linearGradient id="paint0_linear_9_179" x1="1" y1="35.434" x2="69.989" y2="35.434" gradientUnits="userSpaceOnUse"><stop stop-color="#0CBAF1"/><stop offset="1" stop-color="#E95CE9"/></linearGradient></defs></svg>